<svg width="16" height="16" viewBox="0 0 16 16" fill="none" xmlns="http://www.w3.org/2000/svg">
<path d="M7.99976 8.44421C8.24516 8.44421 8.44409 8.24528 8.44409 7.99988C8.44409 7.75448 8.24516 7.55554 7.99976 7.55554C7.75436 7.55554 7.55542 7.75448 7.55542 7.99988C7.55542 8.24528 7.75436 8.44421 7.99976 8.44421Z" fill="#171717" stroke="#171717" stroke-width="1.33333" stroke-linecap="round" stroke-linejoin="round"/>
<path d="M2.88867 8.44421C3.13407 8.44421 3.33301 8.24528 3.33301 7.99988C3.33301 7.75448 3.13407 7.55554 2.88867 7.55554C2.64327 7.55554 2.44434 7.75448 2.44434 7.99988C2.44434 8.24528 2.64327 8.44421 2.88867 8.44421Z" fill="#171717" stroke="#171717" stroke-width="1.33333" stroke-linecap="round" stroke-linejoin="round"/>
<path d="M13.1108 8.44421C13.3562 8.44421 13.5552 8.24528 13.5552 7.99988C13.5552 7.75448 13.3562 7.55554 13.1108 7.55554C12.8654 7.55554 12.6665 7.75448 12.6665 7.99988C12.6665 8.24528 12.8654 8.44421 13.1108 8.44421Z" fill="#171717" stroke="#171717" stroke-width="1.33333" stroke-linecap="round" stroke-linejoin="round"/>
</svg>
