<svg width="20" height="20" viewBox="0 0 20 20" fill="none" xmlns="http://www.w3.org/2000/svg">
<g clip-path="url(#clip0_81_1790)">
<path d="M11.6667 19.1666C9.67826 19.1644 7.77189 18.3736 6.36584 16.9675C4.9598 15.5615 4.16891 13.6551 4.16671 11.6666C4.16671 11.4456 4.25451 11.2337 4.41079 11.0774C4.56707 10.9211 4.77903 10.8333 5.00004 10.8333H10.8334V4.99998C10.8334 4.77897 10.9212 4.567 11.0775 4.41072C11.2337 4.25444 11.4457 4.16665 11.6667 4.16665C13.6558 4.16665 15.5635 4.95682 16.97 6.36335C18.3765 7.76987 19.1667 9.67752 19.1667 11.6666C19.1667 13.6558 18.3765 15.5634 16.97 16.9699C15.5635 18.3765 13.6558 19.1666 11.6667 19.1666ZM5.89254 12.5C6.04733 13.5714 6.49721 14.5786 7.19183 15.4089C7.88644 16.2392 8.7984 16.8598 9.82566 17.2013C10.8529 17.5428 11.9549 17.5918 13.0084 17.3426C14.0619 17.0935 15.0253 16.5561 15.7907 15.7907C16.5562 15.0252 17.0936 14.0618 17.3427 13.0083C17.5918 11.9549 17.5429 10.8528 17.2014 9.82559C16.8599 8.79834 16.2392 7.88638 15.4089 7.19177C14.5787 6.49715 13.5715 6.04727 12.5 5.89248V11.6666C12.5 11.8877 12.4122 12.0996 12.256 12.2559C12.0997 12.4122 11.8877 12.5 11.6667 12.5H5.89254ZM8.33337 9.16665H1.66671C1.44569 9.16665 1.23373 9.07885 1.07745 8.92257C0.921171 8.76629 0.833374 8.55433 0.833374 8.33331C0.83558 6.34487 1.62646 4.43849 3.03251 3.03245C4.43855 1.6264 6.34493 0.835519 8.33337 0.833313C8.55439 0.833313 8.76635 0.92111 8.92263 1.07739C9.07891 1.23367 9.16671 1.44563 9.16671 1.66665V8.33331C9.16671 8.55433 9.07891 8.76629 8.92263 8.92257C8.76635 9.07885 8.55439 9.16665 8.33337 9.16665ZM2.55921 7.49998H7.50004V2.55915C6.25431 2.74099 5.10054 3.32008 4.21034 4.21028C3.32014 5.10048 2.74105 6.25425 2.55921 7.49998Z" fill="#3D4350"/>
</g>
<defs>
<clipPath id="clip0_81_1790">
<rect width="20" height="20" fill="white"/>
</clipPath>
</defs>
</svg>
