<svg width="20" height="20" viewBox="0 0 20 20" fill="none" xmlns="http://www.w3.org/2000/svg">
<path d="M17.5 9.16671H14.2166C14.1586 9.15882 14.0997 9.15882 14.0416 9.16671H13.9C13.8564 9.19156 13.8146 9.2194 13.775 9.25004C13.7286 9.28068 13.684 9.31407 13.6416 9.35004C13.6138 9.38411 13.5887 9.42034 13.5666 9.45837C13.5284 9.51087 13.495 9.56664 13.4666 9.62504L12.1333 13.3L8.65829 3.88337C8.5999 3.7225 8.4934 3.5835 8.35325 3.48527C8.2131 3.38704 8.0461 3.33435 7.87496 3.33435C7.70381 3.33435 7.53682 3.38704 7.39667 3.48527C7.25652 3.5835 7.15002 3.7225 7.09163 3.88337L5.16663 9.16671H2.49996C2.27895 9.16671 2.06698 9.2545 1.9107 9.41078C1.75442 9.56706 1.66663 9.77902 1.66663 10C1.66663 10.2211 1.75442 10.433 1.9107 10.5893C2.06698 10.7456 2.27895 10.8334 2.49996 10.8334H5.76663H5.95829H6.08329C6.13066 10.8106 6.17537 10.7826 6.21663 10.75C6.26303 10.7194 6.30755 10.686 6.34996 10.65L6.42496 10.5417C6.46468 10.4902 6.49824 10.4343 6.52496 10.375L7.87496 6.60004L11.3416 16.1167C11.3999 16.2778 11.5063 16.417 11.6465 16.5154C11.7866 16.6138 11.9537 16.6666 12.125 16.6667C12.2962 16.6666 12.4633 16.6138 12.6035 16.5154C12.7436 16.417 12.8501 16.2778 12.9083 16.1167L14.825 10.8334H17.5C17.721 10.8334 17.9329 10.7456 18.0892 10.5893C18.2455 10.433 18.3333 10.2211 18.3333 10C18.3333 9.77902 18.2455 9.56706 18.0892 9.41078C17.9329 9.2545 17.721 9.16671 17.5 9.16671Z" fill="#3D4350"/>
</svg>
