<svg width="20" height="20" viewBox="0 0 20 20" fill="none" xmlns="http://www.w3.org/2000/svg">
<path d="M16.5832 10.55C16.4496 10.3979 16.3759 10.2024 16.3759 9.99999C16.3759 9.79757 16.4496 9.60207 16.5832 9.44999L17.6499 8.24999C17.7674 8.11888 17.8404 7.95391 17.8584 7.77875C17.8763 7.60359 17.8384 7.42723 17.7499 7.27499L16.0832 4.39166C15.9956 4.23959 15.8623 4.11906 15.7022 4.04723C15.5421 3.97541 15.3634 3.95596 15.1915 3.99166L13.6249 4.30833C13.4255 4.34952 13.218 4.31632 13.0414 4.21499C12.8649 4.11367 12.7315 3.95123 12.6665 3.75833L12.1582 2.23333C12.1023 2.06781 11.9958 1.92405 11.8537 1.82236C11.7117 1.72068 11.5412 1.66621 11.3665 1.66666H8.03321C7.85148 1.65718 7.67165 1.70743 7.52118 1.80976C7.3707 1.91208 7.25786 2.06084 7.19987 2.23333L6.73321 3.75833C6.66821 3.95123 6.53485 4.11367 6.3583 4.21499C6.18175 4.31632 5.97422 4.34952 5.77487 4.30833L4.16654 3.99166C4.00367 3.96864 3.83762 3.99435 3.68933 4.06553C3.54104 4.13671 3.41712 4.25018 3.33321 4.39166L1.66654 7.27499C1.57584 7.42553 1.53506 7.6009 1.55003 7.77601C1.56499 7.95113 1.63494 8.11703 1.74987 8.24999L2.80821 9.44999C2.94181 9.60207 3.01548 9.79757 3.01548 9.99999C3.01548 10.2024 2.94181 10.3979 2.80821 10.55L1.74987 11.75C1.63494 11.883 1.56499 12.0489 1.55003 12.224C1.53506 12.3991 1.57584 12.5745 1.66654 12.725L3.33321 15.6083C3.42079 15.7604 3.55414 15.8809 3.71425 15.9528C3.87436 16.0246 4.05306 16.044 4.22487 16.0083L5.79154 15.6917C5.99089 15.6505 6.19842 15.6837 6.37497 15.785C6.55152 15.8863 6.68487 16.0488 6.74987 16.2417L7.25821 17.7667C7.31619 17.9391 7.42904 18.0879 7.57951 18.1902C7.72999 18.2926 7.90982 18.3428 8.09154 18.3333H11.4249C11.5996 18.3338 11.77 18.2793 11.9121 18.1776C12.0541 18.0759 12.1606 17.9322 12.2165 17.7667L12.7249 16.2417C12.7899 16.0488 12.9232 15.8863 13.0998 15.785C13.2763 15.6837 13.4839 15.6505 13.6832 15.6917L15.2499 16.0083C15.4217 16.044 15.6004 16.0246 15.7605 15.9528C15.9206 15.8809 16.054 15.7604 16.1415 15.6083L17.8082 12.725C17.8967 12.5728 17.9347 12.3964 17.9167 12.2212C17.8987 12.0461 17.8257 11.8811 17.7082 11.75L16.5832 10.55ZM15.3415 11.6667L16.0082 12.4167L14.9415 14.2667L13.9582 14.0667C13.358 13.944 12.7337 14.0459 12.2037 14.3532C11.6737 14.6604 11.275 15.1515 11.0832 15.7333L10.7665 16.6667H8.63321L8.33321 15.7167C8.14142 15.1349 7.74269 14.6437 7.21271 14.3365C6.68273 14.0293 6.05839 13.9273 5.45821 14.05L4.47487 14.25L3.39154 12.4083L4.05821 11.6583C4.46817 11.2 4.69482 10.6066 4.69482 9.99166C4.69482 9.37672 4.46817 8.78335 4.05821 8.32499L3.39154 7.57499L4.45821 5.74166L5.44154 5.94166C6.04172 6.06435 6.66606 5.96239 7.19604 5.65516C7.72602 5.34792 8.12475 4.85679 8.31654 4.27499L8.63321 3.33333H10.7665L11.0832 4.28333C11.275 4.86513 11.6737 5.35626 12.2037 5.66349C12.7337 5.97073 13.358 6.07268 13.9582 5.94999L14.9415 5.74999L16.0082 7.59999L15.3415 8.34999C14.9362 8.80729 14.7123 9.39723 14.7123 10.0083C14.7123 10.6194 14.9362 11.2094 15.3415 11.6667ZM9.69987 6.66666C9.0406 6.66666 8.39614 6.86216 7.84797 7.22843C7.29981 7.5947 6.87257 8.11529 6.62027 8.72438C6.36798 9.33347 6.30197 10.0037 6.43059 10.6503C6.55921 11.2969 6.87668 11.8908 7.34285 12.357C7.80903 12.8232 8.40297 13.1407 9.04957 13.2693C9.69618 13.3979 10.3664 13.3319 10.9755 13.0796C11.5846 12.8273 12.1052 12.4001 12.4714 11.8519C12.8377 11.3037 13.0332 10.6593 13.0332 9.99999C13.0332 9.11594 12.682 8.26809 12.0569 7.64297C11.4318 7.01785 10.5839 6.66666 9.69987 6.66666ZM9.69987 11.6667C9.37024 11.6667 9.048 11.5689 8.77392 11.3858C8.49984 11.2026 8.28622 10.9423 8.16007 10.6378C8.03393 10.3333 8.00092 9.99814 8.06523 9.67484C8.12954 9.35154 8.28827 9.05457 8.52136 8.82148C8.75445 8.58839 9.05142 8.42966 9.37472 8.36535C9.69802 8.30104 10.0331 8.33405 10.3377 8.46019C10.6422 8.58634 10.9025 8.79996 11.0857 9.07404C11.2688 9.34812 11.3665 9.67036 11.3665 9.99999C11.3665 10.442 11.1909 10.8659 10.8784 11.1785C10.5658 11.4911 10.1419 11.6667 9.69987 11.6667Z" fill="#3D4350"/>
</svg>
