<svg width="20" height="20" viewBox="0 0 20 20" fill="none" xmlns="http://www.w3.org/2000/svg">
<path fill-rule="evenodd" clip-rule="evenodd" d="M10.7475 10.4759H13.3929C13.7665 10.4757 14.1249 10.3276 14.3891 10.0641C14.6534 9.80066 14.8021 9.44339 14.8024 9.07074V8.54742C14.8019 8.17493 14.6533 7.81785 14.3891 7.55451C14.125 7.29117 13.7669 7.14306 13.3933 7.14269H12.8767C12.6652 3.96038 10.335 1.90472 7.58506 1.90472C4.83277 1.90472 2.60476 3.958 2.4023 7.14269H1.88661C1.51309 7.14306 1.15497 7.29117 0.890812 7.55451C0.626651 7.81785 0.478016 8.17493 0.47751 8.54742V9.07074C0.478016 9.44322 0.626651 9.8003 0.890812 10.0636C1.15497 10.327 1.51309 10.4751 1.88661 10.4755H2.865C2.99164 10.4755 3.11309 10.4253 3.20264 10.336C3.29219 10.2467 3.3425 10.1256 3.3425 9.99929V7.61839C3.3425 4.76608 5.20139 2.8566 7.58506 2.8566C9.97112 2.85707 11.9375 4.7637 11.9375 7.61887V9.52358H11.1897C11.364 9.00931 11.46 8.44742 11.46 7.85696C11.46 5.33797 9.70945 3.33325 7.61228 3.33325C5.51559 3.33325 3.76508 5.33797 3.76508 7.85696C3.76508 9.55215 4.55773 11.014 5.71518 11.7897C5.7233 11.8435 5.72998 11.8869 5.72998 11.905C5.72998 12.144 5.67412 12.3802 5.56668 12.594L5.43489 12.8573H3.28758C2.9075 12.8573 2.54316 13.0078 2.27481 13.2759C2.14175 13.4084 2.0362 13.5657 1.96418 13.739C1.89216 13.9122 1.85509 14.0979 1.85509 14.2854V14.8582C0.682357 15.7249 0.171434 17.1305 0.00908498 18.4515L0.0086074 18.4562C-0.0130365 18.6484 0.00624997 18.843 0.0652049 19.0272C0.12416 19.2114 0.221455 19.3812 0.350725 19.5253C0.479995 19.6695 0.638327 19.7848 0.815363 19.8637C0.992399 19.9426 1.18415 19.9834 1.37807 19.9833C1.62159 19.9848 13.5256 20 13.7973 20C13.993 20.0002 14.1866 19.9592 14.3654 19.8799C14.5443 19.8005 14.7043 19.6845 14.8352 19.5394C14.9661 19.3943 15.0649 19.2233 15.1251 19.0375C15.1854 18.8518 15.2058 18.6555 15.1849 18.4615L15.1835 18.4519C15.0187 17.1567 14.5446 15.813 13.3738 14.9292C13.3552 14.9149 13.3356 14.902 13.315 14.8906V14.2854C13.315 13.9063 13.1641 13.5425 12.8948 13.2754C12.762 13.1426 12.6042 13.0373 12.4305 12.9654C12.2568 12.8935 12.0706 12.8564 11.8825 12.8564H9.84506L9.71327 12.5935C9.60586 12.3796 9.54994 12.1437 9.54996 11.9045V11.7616C10.0213 11.4378 10.4305 10.9983 10.7475 10.4759ZM11.8825 13.8092H3.28758C3.22482 13.809 3.16265 13.8212 3.10463 13.8451C3.04661 13.8689 2.9939 13.904 2.94952 13.9482C2.90514 13.9925 2.86998 14.0451 2.84605 14.1029C2.82212 14.1608 2.8099 14.2228 2.81009 14.2854V19.0367C5.45829 19.0453 9.70993 19.0462 12.36 19.0472V14.2854C12.3602 14.2228 12.348 14.1608 12.3241 14.1029C12.3001 14.0451 12.265 13.9925 12.2206 13.9482C12.1762 13.904 12.1235 13.8689 12.0655 13.8451C12.0075 13.8212 11.9453 13.809 11.8825 13.8092ZM7.58506 15.2377C7.21154 15.2474 6.85657 15.4021 6.59579 15.6689C6.33502 15.9358 6.18908 16.2937 6.18908 16.6663C6.18908 17.0389 6.33502 17.3968 6.59579 17.6636C6.85657 17.9305 7.21154 18.0852 7.58506 18.0948C7.95858 18.0852 8.31356 17.9305 8.57433 17.6636C8.8351 17.3968 8.98104 17.0389 8.98104 16.6663C8.98104 16.2937 8.8351 15.9358 8.57433 15.6689C8.31356 15.4021 7.95858 15.2474 7.58506 15.2377ZM8.6155 12.2235C7.98128 12.4275 7.29968 12.4333 6.66206 12.2402C6.63341 12.4516 6.57754 12.6592 6.49541 12.8568H8.78454C8.70051 12.6541 8.64368 12.4411 8.6155 12.2235ZM10.1721 9.52358C10.394 8.99591 10.5072 8.42913 10.505 7.85696C10.505 5.90748 9.23529 4.28561 7.61228 4.28561C5.98926 4.28561 4.72008 5.90748 4.72008 7.85696C4.72008 9.80643 5.98926 11.4283 7.61228 11.4283C8.38057 11.4283 9.06912 11.065 9.58196 10.4759H7.63997C7.51333 10.4759 7.39188 10.4258 7.30233 10.3365C7.21278 10.2472 7.16248 10.1261 7.16248 9.99976C7.16248 9.87347 7.21278 9.75235 7.30233 9.66305C7.39188 9.57375 7.51333 9.52358 7.63997 9.52358H10.1721ZM16.6575 0C14.8125 0 13.315 1.49377 13.315 3.33325V5.21845C13.3149 5.40858 13.3524 5.59688 13.4253 5.77256C13.4982 5.94825 13.6051 6.10788 13.7399 6.24232C13.8747 6.37677 14.0348 6.48339 14.211 6.5561C14.3871 6.6288 14.576 6.66616 14.7666 6.66603H16.6575C18.5021 6.66603 20 5.17273 20 3.33278C20 1.49377 18.5021 0 16.6575 0ZM18.09 2.85707C18.2167 2.85707 18.3381 2.90724 18.4277 2.99654C18.5172 3.08585 18.5675 3.20696 18.5675 3.33325C18.5675 3.45954 18.5172 3.58066 18.4277 3.66996C18.3381 3.75926 18.2167 3.80943 18.09 3.80943C17.9634 3.80943 17.8419 3.75926 17.7524 3.66996C17.6628 3.58066 17.6125 3.45954 17.6125 3.33325C17.6125 3.20696 17.6628 3.08585 17.7524 2.99654C17.8419 2.90724 17.9634 2.85707 18.09 2.85707ZM16.6575 2.85707C16.7842 2.85707 16.9056 2.90724 16.9952 2.99654C17.0847 3.08585 17.135 3.20696 17.135 3.33325C17.135 3.45954 17.0847 3.58066 16.9952 3.66996C16.9056 3.75926 16.7842 3.80943 16.6575 3.80943C16.5309 3.80943 16.4094 3.75926 16.3199 3.66996C16.2303 3.58066 16.18 3.45954 16.18 3.33325C16.18 3.20696 16.2303 3.08585 16.3199 2.99654C16.4094 2.90724 16.5309 2.85707 16.6575 2.85707ZM15.225 2.85707C15.3517 2.85707 15.4731 2.90724 15.5627 2.99654C15.6522 3.08585 15.7025 3.20696 15.7025 3.33325C15.7025 3.45954 15.6522 3.58066 15.5627 3.66996C15.4731 3.75926 15.3517 3.80943 15.225 3.80943C15.0984 3.80943 14.9769 3.75926 14.8874 3.66996C14.7978 3.58066 14.7475 3.45954 14.7475 3.33325C14.7475 3.20696 14.7978 3.08585 14.8874 2.99654C14.9769 2.90724 15.0984 2.85707 15.225 2.85707Z" fill="#1B1D23"/>
</svg>
